<svg width="116" height="44" viewBox="0 0 116 44" fill="none" xmlns="http://www.w3.org/2000/svg">
<path d="M1.584 20V2.12H8.448C9.68 2.12 10.768 2.336 11.712 2.768C12.672 3.2 13.424 3.84 13.968 4.688C14.512 5.536 14.784 6.584 14.784 7.832C14.784 9.048 14.504 10.08 13.944 10.928C13.4 11.776 12.648 12.424 11.688 12.872C10.744 13.304 9.664 13.52 8.448 13.52H5.304V20H1.584ZM5.304 10.28H8.472C9 10.28 9.456 10.176 9.84 9.968C10.224 9.76 10.52 9.472 10.728 9.104C10.952 8.736 11.064 8.312 11.064 7.832C11.064 7.336 10.952 6.904 10.728 6.536C10.52 6.168 10.224 5.88 9.84 5.672C9.456 5.464 9 5.36 8.472 5.36H5.304V10.28ZM13.4602 20L19.5083 2.12H24.4523L30.5003 20H26.4443L25.2443 16.352H18.6923L17.4923 20H13.4602ZM19.7243 13.112H24.2123L21.4763 4.664H22.4843L19.7243 13.112ZM34.3429 20V12.2L28.3909 2.12H32.6389L36.9589 9.704H35.4469L39.7429 2.12H43.9909L38.0629 12.176V20H34.3429ZM44.8759 20V2.12H48.4759L55.1719 11H53.4919L59.9959 2.12H63.5959V20H59.8759V6.224L61.3639 6.56L54.4759 15.44H53.9959L47.3479 6.56L48.5959 6.224V20H44.8759ZM65.8065 20V2.12H77.8305V5.36H69.5265V9.416H77.3505V12.656H69.5265V16.76H77.8305V20H65.8065ZM78.9793 20V2.12H81.8353L91.4353 14.768L89.8993 15.128V2.12H93.6193V20H90.7393L81.3073 7.256L82.6993 6.896V20H78.9793ZM99.0478 20V5.36H94.5118V2.12H107.232V5.36H102.768V20H99.0478ZM7.728 40.288C6.576 40.288 5.568 40.088 4.704 39.688C3.856 39.272 3.192 38.688 2.712 37.936C2.232 37.184 1.992 36.312 1.992 35.32C1.992 34.488 2.136 33.768 2.424 33.16C2.728 32.552 3.096 32.04 3.528 31.624C3.96 31.208 4.384 30.872 4.8 30.616C5.232 30.344 5.584 30.136 5.856 29.992L7.536 29.128C8.064 28.856 8.536 28.592 8.952 28.336C9.368 28.08 9.696 27.8 9.936 27.496C10.192 27.176 10.32 26.808 10.32 26.392C10.32 25.912 10.16 25.504 9.84 25.168C9.536 24.832 9.144 24.664 8.664 24.664C8.2 24.664 7.8 24.832 7.464 25.168C7.144 25.488 6.984 25.904 6.984 26.416C6.984 26.8 7.072 27.176 7.248 27.544C7.424 27.912 7.624 28.248 7.848 28.552C8.088 28.856 8.304 29.12 8.496 29.344L17.856 40H13.68L5.976 31.36C5.608 30.944 5.24 30.504 4.872 30.04C4.52 29.576 4.224 29.064 3.984 28.504C3.76 27.928 3.648 27.288 3.648 26.584C3.648 25.608 3.88 24.768 4.344 24.064C4.808 23.344 5.416 22.792 6.168 22.408C6.92 22.024 7.736 21.832 8.616 21.832C9.544 21.832 10.376 22.032 11.112 22.432C11.848 22.832 12.432 23.376 12.864 24.064C13.296 24.752 13.512 25.536 13.512 26.416C13.512 27.296 13.304 28.048 12.888 28.672C12.488 29.28 12 29.792 11.424 30.208C10.848 30.624 10.304 30.976 9.792 31.264L8.04 32.272C7.72 32.448 7.376 32.672 7.008 32.944C6.64 33.216 6.328 33.544 6.072 33.928C5.832 34.296 5.712 34.744 5.712 35.272C5.712 35.896 5.904 36.392 6.288 36.76C6.672 37.112 7.2 37.288 7.872 37.288C8.288 37.288 8.656 37.224 8.976 37.096C9.296 36.952 9.576 36.784 9.816 36.592C10.056 36.384 10.256 36.168 10.416 35.944C10.592 35.72 10.744 35.52 10.872 35.344L13.68 31.288H17.328L14.088 36.376C13.848 36.76 13.552 37.184 13.2 37.648C12.864 38.096 12.448 38.52 11.952 38.92C11.456 39.32 10.864 39.648 10.176 39.904C9.488 40.16 8.672 40.288 7.728 40.288ZM20.1474 40V22.12H25.9794C27.9154 22.12 29.5954 22.504 31.0194 23.272C32.4434 24.04 33.5474 25.096 34.3314 26.44C35.1154 27.784 35.5074 29.32 35.5074 31.048C35.5074 32.776 35.1154 34.32 34.3314 35.68C33.5474 37.024 32.4434 38.08 31.0194 38.848C29.5954 39.616 27.9154 40 25.9794 40H20.1474ZM23.8674 36.76H26.0754C27.2434 36.76 28.2514 36.528 29.0994 36.064C29.9474 35.584 30.6034 34.92 31.0674 34.072C31.5474 33.208 31.7874 32.2 31.7874 31.048C31.7874 29.88 31.5474 28.872 31.0674 28.024C30.6034 27.176 29.9474 26.52 29.0994 26.056C28.2514 25.592 27.2434 25.36 26.0754 25.36H23.8674V36.76ZM36.9296 40V22.12H48.9536V25.36H40.6496V29.416H48.4736V32.656H40.6496V36.76H48.9536V40H36.9296ZM56.6064 40.288C55.4864 40.288 54.4304 40.088 53.4384 39.688C52.4624 39.272 51.6144 38.688 50.8944 37.936C50.1904 37.184 49.6624 36.296 49.3104 35.272L52.3584 33.904C52.8064 34.88 53.4224 35.648 54.2064 36.208C55.0064 36.768 55.8864 37.048 56.8464 37.048C57.3584 37.048 57.7984 36.968 58.1664 36.808C58.5344 36.648 58.8224 36.432 59.0304 36.16C59.2384 35.872 59.3424 35.536 59.3424 35.152C59.3424 34.736 59.2144 34.384 58.9584 34.096C58.7024 33.792 58.3024 33.552 57.7584 33.376L54.2544 32.224C52.8304 31.76 51.7584 31.104 51.0384 30.256C50.3184 29.392 49.9584 28.36 49.9584 27.16C49.9584 26.104 50.2144 25.176 50.7264 24.376C51.2544 23.576 51.9824 22.952 52.9104 22.504C53.8544 22.056 54.9344 21.832 56.1504 21.832C57.2224 21.832 58.2144 22.016 59.1264 22.384C60.0384 22.752 60.8224 23.272 61.4784 23.944C62.1504 24.616 62.6544 25.424 62.9904 26.368L59.9664 27.736C59.6304 26.904 59.1264 26.256 58.4544 25.792C57.7824 25.312 57.0144 25.072 56.1504 25.072C55.6544 25.072 55.2144 25.152 54.8304 25.312C54.4464 25.472 54.1504 25.704 53.9424 26.008C53.7344 26.296 53.6304 26.632 53.6304 27.016C53.6304 27.432 53.7664 27.8 54.0384 28.12C54.3104 28.424 54.7184 28.664 55.2624 28.84L58.6944 29.944C60.1344 30.408 61.2064 31.056 61.9104 31.888C62.6304 32.72 62.9904 33.736 62.9904 34.936C62.9904 35.976 62.7184 36.904 62.1744 37.72C61.6304 38.52 60.8784 39.152 59.9184 39.616C58.9744 40.064 57.8704 40.288 56.6064 40.288ZM64.6815 40V22.12H68.4015V40H64.6815ZM79.2041 40.288C77.9241 40.288 76.7321 40.056 75.6281 39.592C74.5241 39.128 73.5561 38.48 72.7241 37.648C71.8921 36.816 71.2441 35.84 70.7801 34.72C70.3161 33.6 70.0841 32.376 70.0841 31.048C70.0841 29.72 70.3081 28.496 70.7561 27.376C71.2041 26.24 71.8361 25.264 72.6521 24.448C73.4681 23.616 74.4201 22.976 75.5081 22.528C76.6121 22.064 77.8121 21.832 79.1081 21.832C80.4041 21.832 81.5641 22.048 82.5881 22.48C83.6281 22.912 84.5081 23.488 85.2281 24.208C85.9481 24.928 86.4601 25.728 86.7641 26.608L83.4761 28.192C83.1721 27.328 82.6361 26.616 81.8681 26.056C81.1161 25.48 80.1961 25.192 79.1081 25.192C78.0521 25.192 77.1241 25.44 76.3241 25.936C75.5241 26.432 74.9001 27.12 74.4521 28C74.0201 28.864 73.8041 29.88 73.8041 31.048C73.8041 32.216 74.0361 33.24 74.5001 34.12C74.9641 35 75.5961 35.688 76.3961 36.184C77.2121 36.68 78.1481 36.928 79.2041 36.928C80.0201 36.928 80.7801 36.776 81.4841 36.472C82.2041 36.152 82.7801 35.696 83.2121 35.104C83.6601 34.512 83.8841 33.8 83.8841 32.968V31.48L85.5881 32.92H79.1081V29.8H87.6041V31.696C87.6041 33.152 87.3641 34.424 86.8841 35.512C86.4041 36.584 85.7561 37.48 84.9401 38.2C84.1401 38.904 83.2361 39.432 82.2281 39.784C81.2361 40.12 80.2281 40.288 79.2041 40.288ZM88.9412 40V22.12H91.7972L101.397 34.768L99.8612 35.128V22.12H103.581V40H100.701L91.2692 27.256L92.6612 26.896V40H88.9412Z" fill="white"/>
</svg>
